<?xml version="1.0" encoding="UTF-8"?>
<svg version="1.1" xmlns="http://www.w3.org/2000/svg" width="500" height="500">
<path d="M0 0 C23.1 0 46.2 0 70 0 C70 3.3 70 6.6 70 10 C79.9 10 89.8 10 100 10 C100 13.3 100 16.6 100 20 C109.9 20 119.8 20 130 20 C130 23.3 130 26.6 130 30 C133.3 30 136.6 30 140 30 C140 33.3 140 36.6 140 40 C146.6 40 153.2 40 160 40 C160 43.3 160 46.6 160 50 C163.3 50 166.6 50 170 50 C170 53.3 170 56.6 170 60 C173.3 60 176.6 60 180 60 C180 63.3 180 66.6 180 70 C183.3 70 186.6 70 190 70 C190 76.6 190 83.2 190 90 C193.3 90 196.6 90 200 90 C200 93.3 200 96.6 200 100 C203.3 100 206.6 100 210 100 C210 109.9 210 119.8 210 130 C213.3 130 216.6 130 220 130 C220 136.6 220 143.2 220 150 C223.3 150 226.6 150 230 150 C230 216 230 282 230 350 C226.7 350 223.4 350 220 350 C220 373.1 220 396.2 220 420 C216.7 420 213.4 420 210 420 C210 436.5 210 453 210 470 C206.7 470 203.4 470 200 470 C200 473.3 200 476.6 200 480 C193.4 480 186.8 480 180 480 C180 476.7 180 473.4 180 470 C170.1 470 160.2 470 150 470 C150 466.7 150 463.4 150 460 C143.4 460 136.8 460 130 460 C130 456.7 130 453.4 130 450 C120.1 450 110.2 450 100 450 C100 446.7 100 443.4 100 440 C93.4 440 86.8 440 80 440 C80 436.7 80 433.4 80 430 C70.1 430 60.2 430 50 430 C50 426.7 50 423.4 50 420 C43.4 420 36.8 420 30 420 C30 416.7 30 413.4 30 410 C23.4 410 16.8 410 10 410 C10 406.7 10 403.4 10 400 C3.4 400 -3.2 400 -10 400 C-10 396.7 -10 393.4 -10 390 C-16.6 390 -23.2 390 -30 390 C-30 386.7 -30 383.4 -30 380 C-36.6 380 -43.2 380 -50 380 C-50 376.7 -50 373.4 -50 370 C-53.3 370 -56.6 370 -60 370 C-60 366.7 -60 363.4 -60 360 C-63.3 360 -66.6 360 -70 360 C-70 356.7 -70 353.4 -70 350 C-76.6 350 -83.2 350 -90 350 C-90 346.7 -90 343.4 -90 340 C-93.3 340 -96.6 340 -100 340 C-100 336.7 -100 333.4 -100 330 C-103.3 330 -106.6 330 -110 330 C-110 326.7 -110 323.4 -110 320 C-113.3 320 -116.6 320 -120 320 C-120 313.4 -120 306.8 -120 300 C-123.3 300 -126.6 300 -130 300 C-130 293.4 -130 286.8 -130 280 C-133.3 280 -136.6 280 -140 280 C-140 273.4 -140 266.8 -140 260 C-143.3 260 -146.6 260 -150 260 C-150 243.5 -150 227 -150 210 C-153.3 210 -156.6 210 -160 210 C-160 200.1 -160 190.2 -160 180 C-156.7 180 -153.4 180 -150 180 C-150 163.5 -150 147 -150 130 C-146.7 130 -143.4 130 -140 130 C-140 123.4 -140 116.8 -140 110 C-136.7 110 -133.4 110 -130 110 C-130 103.4 -130 96.8 -130 90 C-126.7 90 -123.4 90 -120 90 C-120 86.7 -120 83.4 -120 80 C-116.7 80 -113.4 80 -110 80 C-110 73.4 -110 66.8 -110 60 C-103.4 60 -96.8 60 -90 60 C-90 53.4 -90 46.8 -90 40 C-83.4 40 -76.8 40 -70 40 C-70 36.7 -70 33.4 -70 30 C-66.7 30 -63.4 30 -60 30 C-60 26.7 -60 23.4 -60 20 C-53.4 20 -46.8 20 -40 20 C-40 16.7 -40 13.4 -40 10 C-26.8 10 -13.6 10 0 10 C0 6.7 0 3.4 0 0 Z M0 120 C0 123.3 0 126.6 0 130 C-3.3 130 -6.6 130 -10 130 C-10 133.3 -10 136.6 -10 140 C-13.3 140 -16.6 140 -20 140 C-20 143.3 -20 146.6 -20 150 C-23.3 150 -26.6 150 -30 150 C-30 153.3 -30 156.6 -30 160 C-33.3 160 -36.6 160 -40 160 C-40 183.1 -40 206.2 -40 230 C-36.7 230 -33.4 230 -30 230 C-30 233.3 -30 236.6 -30 240 C-26.7 240 -23.4 240 -20 240 C-20 246.6 -20 253.2 -20 260 C-13.4 260 -6.8 260 0 260 C0 263.3 0 266.6 0 270 C23.1 270 46.2 270 70 270 C70 266.7 70 263.4 70 260 C76.6 260 83.2 260 90 260 C90 256.7 90 253.4 90 250 C93.3 250 96.6 250 100 250 C100 243.4 100 236.8 100 230 C103.3 230 106.6 230 110 230 C110 206.9 110 183.8 110 160 C106.7 160 103.4 160 100 160 C100 153.4 100 146.8 100 140 C96.7 140 93.4 140 90 140 C90 136.7 90 133.4 90 130 C83.4 130 76.8 130 70 130 C70 126.7 70 123.4 70 120 C46.9 120 23.8 120 0 120 Z " fill="#FEFEFE" transform="translate(170,10)"/>
<path d="M0 0 C3.3 0 6.6 0 10 0 C10 3.3 10 6.6 10 10 C6.7 10 3.4 10 0 10 C0 6.7 0 3.4 0 0 Z " fill="#F7F7F7" transform="translate(110,30)"/>
</svg>
